<?xml version="1.0" encoding="iso-8859-1"?>
<!-- Generator: Adobe Illustrator 18.0.0, SVG Export Plug-In . SVG Version: 6.00 Build 0)  -->
<!DOCTYPE svg PUBLIC "-//W3C//DTD SVG 1.1//EN" "http://www.w3.org/Graphics/SVG/1.1/DTD/svg11.dtd">
<svg version="1.1" id="_x34_" xmlns="http://www.w3.org/2000/svg" xmlns:xlink="http://www.w3.org/1999/xlink" x="0px" y="0px"
	 viewBox="0 0 512 512" style="enable-background:new 0 0 512 512;" xml:space="preserve">
<g>
	<g>
		<polygon style="fill:#E3E8CE;" points="330.188,128.829 330.188,129.812 329.206,197.512 328.828,222.295 328.677,231.513 
			79.94,231.513 79.789,222.295 79.411,197.512 78.429,128.829 		"/>
		<polygon style="fill:#E3E8CE;" points="304.951,103.064 304.951,104.575 304.649,128.829 304.649,130.644 103.968,130.644 
			103.968,128.829 103.666,103.064 		"/>
		<polygon style="fill:#E3E8CE;" points="274.879,75.787 274.728,103.064 274.728,103.594 133.889,103.594 133.889,103.064 
			133.738,75.787 		"/>
		<polygon style="fill:#E3E8CE;" points="389.123,197.512 383.078,482.818 383.003,485.161 25.614,485.161 25.539,482.818 
			19.494,197.512 		"/>
		<polygon style="fill:#539994;" points="408.617,482.818 407.861,511.983 0.755,511.983 0.151,488.409 0,482.818 		"/>
		<g>
			<polygon style="fill:#539994;" points="248.51,52.592 244.279,75.787 244.203,76.392 164.414,76.392 164.338,75.787 
				160.107,52.592 			"/>
			<polygon style="fill:#539994;" points="236.874,58.562 171.743,58.562 177.259,52.592 200.757,27.053 204.308,23.199 
				207.86,27.053 231.358,52.592 231.434,52.592 			"/>
			<rect x="200.757" y="0.004" style="fill:#539994;" width="7.102" height="32.186"/>
		</g>
		<g>
			<polygon style="fill:#9BCBA6;" points="91.269,381.16 48.407,381.16 47.718,343.706 90.77,343.706 			"/>
			<polygon style="fill:#9BCBA6;" points="158.504,381.16 115.642,381.16 115.251,343.706 158.302,343.706 			"/>
			<polygon style="fill:#9BCBA6;" points="225.739,381.16 182.877,381.16 182.783,343.706 225.834,343.706 			"/>
			<polygon style="fill:#9BCBA6;" points="292.974,381.16 250.112,381.16 250.315,343.706 293.366,343.706 			"/>
			<polygon style="fill:#9BCBA6;" points="360.21,381.16 317.348,381.16 317.847,343.706 360.898,343.706 			"/>
		</g>
		<g>
			<polygon style="fill:#9BCBA6;" points="90.465,320.838 47.298,320.838 46.6,282.849 89.959,282.849 			"/>
			<polygon style="fill:#9BCBA6;" points="158.178,320.838 115.012,320.838 114.614,282.849 157.973,282.849 			"/>
			<polygon style="fill:#9BCBA6;" points="225.892,320.838 182.725,320.838 182.629,282.849 225.988,282.849 			"/>
			<polygon style="fill:#9BCBA6;" points="293.605,320.838 250.438,320.838 250.643,282.849 294.002,282.849 			"/>
			<polygon style="fill:#9BCBA6;" points="361.318,320.838 318.151,320.838 318.658,282.849 362.016,282.849 			"/>
		</g>
		<g>
			<polygon style="fill:#9BCBA6;" points="89.665,260.83 46.195,260.83 45.487,222.304 89.152,222.304 			"/>
			<polygon style="fill:#9BCBA6;" points="157.854,260.83 114.384,260.83 113.982,222.304 157.646,222.304 			"/>
			<polygon style="fill:#9BCBA6;" points="226.043,260.83 182.573,260.83 182.476,222.304 226.141,222.304 			"/>
			<polygon style="fill:#9BCBA6;" points="294.232,260.83 250.762,260.83 250.97,222.304 294.635,222.304 			"/>
			<polygon style="fill:#9BCBA6;" points="362.421,260.83 318.951,260.83 319.464,222.304 363.129,222.304 			"/>
		</g>
		<g>
			<polygon style="fill:#9BCBA6;" points="157.453,186.537 113.608,186.537 113.198,147.341 157.242,147.341 			"/>
			<polygon style="fill:#9BCBA6;" points="226.231,186.537 182.386,186.537 182.287,147.341 226.33,147.341 			"/>
			<polygon style="fill:#9BCBA6;" points="295.009,186.537 251.163,186.537 251.375,147.341 295.418,147.341 			"/>
		</g>
		<g>
			<polygon style="fill:#9BCBA6;" points="244.131,481.788 207.086,481.788 207.105,426.535 244.393,426.535 			"/>
			<polygon style="fill:#9BCBA6;" points="201.53,481.788 164.486,481.788 164.223,426.535 201.512,426.535 			"/>
		</g>
		<g>
			<g>
				<polygon style="fill:#9BCBA6;" points="368.115,481.788 331.071,481.788 331.906,426.535 369.195,426.535 				"/>
				<polygon style="fill:#9BCBA6;" points="325.515,481.788 288.47,481.788 289.025,426.535 326.314,426.535 				"/>
			</g>
			<g>
				<polygon style="fill:#9BCBA6;" points="120.146,481.788 83.102,481.788 82.303,426.535 119.591,426.535 				"/>
				<polygon style="fill:#9BCBA6;" points="77.546,481.788 40.501,481.788 39.422,426.535 76.71,426.535 				"/>
			</g>
		</g>
	</g>
	<polygon style="opacity:0.08;fill:#040000;" points="408.61,482.792 383.073,482.792 389.156,197.54 329.191,197.54 
		330.182,128.794 304.642,128.794 304.938,103.061 274.697,103.061 274.916,75.813 244.289,75.813 248.496,52.593 231.422,52.593 
		207.848,27.024 207.859,0 204.308,0 204.308,512 407.898,512 	"/>
</g>
</svg>
