<?xml version="1.0" encoding="iso-8859-1"?>
<!-- Generator: Adobe Illustrator 18.0.0, SVG Export Plug-In . SVG Version: 6.00 Build 0)  -->
<!DOCTYPE svg PUBLIC "-//W3C//DTD SVG 1.1//EN" "http://www.w3.org/Graphics/SVG/1.1/DTD/svg11.dtd">
<svg version="1.1" id="_x34_" xmlns="http://www.w3.org/2000/svg" xmlns:xlink="http://www.w3.org/1999/xlink" x="0px" y="0px"
	 viewBox="0 0 512 512" style="enable-background:new 0 0 512 512;" xml:space="preserve">
<g>
	<g>
		<path style="fill:#E0E0DE;" d="M126.196,427.201l-29.75,20.179L8.532,507.177L1.41,512l-0.742-0.742L0,510.516l4.822-7.048
			l59.723-87.989l20.254-29.75c0,0,18.696,16.99,16.025,24.853c0.223-0.074,0.371-0.074,0.594-0.074
			C109.504,408.802,126.196,427.201,126.196,427.201z"/>
		<path style="fill:#32373A;" d="M482.011,57.292c0.445,6.973-2.077,13.947-7.345,19.214l-134.58,134.656l-11.499,11.499
			c-2.374,2.299-5.045,4.08-7.938,5.342c-8.68,3.71-19.067,2.374-26.486-4.08c-0.519-0.371-0.964-0.817-1.41-1.262l-1.706-1.78
			l-1.706-1.706c-0.445-0.445-0.891-0.89-1.336-1.41c-6.454-7.419-7.79-17.805-4.006-26.411c1.187-2.893,2.968-5.639,5.342-7.938
			l11.425-11.426v-0.074L435.42,37.26c5.342-5.268,12.39-7.716,19.289-7.345h0.074c1.484,0.074,2.967,0.296,4.451,0.667
			c0.742,0.223,1.484,0.371,2.152,0.594c0.371,0.149,0.742,0.296,1.038,0.37c0.149,0,0.297,0.074,0.445,0.149
			c0.297,0.149,0.519,0.222,0.742,0.37c0.667,0.297,1.335,0.594,2.003,0.965c2.003,1.112,3.932,2.522,5.638,4.228l1.707,1.706
			l1.706,1.706c2.596,2.597,4.525,5.639,5.713,8.829C481.343,52.023,481.936,54.62,482.011,57.292z"/>
		<path style="fill:#414E57;" d="M325.248,235.866c0,1.039-0.148,2.002-0.594,2.968c-0.371,0.964-0.89,1.855-1.706,2.597
			L210.402,353.976l-5.861,5.86l-12.686,11.573l-11.574,10.609l-13.132,11.944l-57.571,55.42c-0.742,0.817-1.632,1.336-2.597,1.706
			c-0.965,0.446-1.929,0.594-2.968,0.594c-0.965,0-2.003-0.148-2.967-0.594c-0.445-0.148-0.89-0.445-1.335-0.741
			c-0.446-0.223-0.891-0.594-1.262-0.965l-2.003-2.003l-15.951-15.95l-15.951-15.951l-1.483-1.484
			c-0.519-0.592-1.039-1.186-1.41-1.928c-0.074-0.223-0.223-0.446-0.297-0.667c-0.371-0.966-0.593-1.929-0.593-2.969
			c0-0.964,0.222-2.002,0.593-2.893c0.371-0.965,0.965-1.855,1.707-2.597l55.271-57.793v-0.074l11.796-13.206l10.535-11.722
			l11.426-12.76l118.407-118.407c0.816-0.743,1.707-1.336,2.597-1.707c0.965-0.37,2.003-0.593,2.967-0.593
			c1.039,0,2.003,0.223,2.968,0.593c0.965,0.371,1.855,0.964,2.596,1.707l17.583,17.582l3.116,3.116l18.325,18.325l2.3,2.3
			c0.816,0.816,1.335,1.706,1.706,2.596C325.099,233.863,325.248,234.901,325.248,235.866z"/>
		<g>
			<path style="fill:#EAD57A;" d="M468.211,43.789L312.116,199.81l-3.042-3.116l-10.535-10.535c0.593-0.593,1.41-6.232,2.226-14.17
				v-0.074c0.074-0.371,0.074-0.743,0.148-1.113c0.148-1.706,0.371-3.561,0.519-5.416c0-0.371,0.074-0.667,0.074-1.039
				c0.149-1.335,0.297-2.671,0.371-4.081c0.074-0.223,0.074-0.445,0.074-0.742c0.074-1.113,0.223-2.299,0.297-3.487
				c0.371-4.303,0.742-8.681,1.038-13.058c0.148-1.484,0.297-2.893,0.371-4.303c0.074-1.262,0.148-2.449,0.297-3.71
				c0.074-1.559,0.223-3.042,0.297-4.526c0.148-1.409,0.223-2.818,0.297-4.08c0.222-2.522,0.371-4.897,0.519-6.974
				c0.222-2.818,0.371-5.193,0.519-6.825c1.113-13.058,19.66-34.869,33.831-49.04c14.17-14.17,46.443-46.516,56.829-56.829
				c10.313-10.387,26.115-7.642,35.982,1.112c3.709,3.265,9.645,9.126,15.654,15.209c1.038,0.965,2.077,2.003,3.042,3.042
				c1.335,1.336,2.596,2.596,3.784,3.858h0.074v0.074c4.229,4.228,7.938,8.086,10.386,10.609
				C467.098,42.601,468.211,43.789,468.211,43.789z"/>
			<path style="fill:#5B9269;" d="M325.778,213.423c2.181-2.181,60.511-5.997,73.595-7.087c13.083-1.09,34.889-19.625,49.063-33.799
				c14.174-14.174,46.466-46.466,56.824-56.824c10.358-10.358,7.632-26.167-1.09-35.98c-8.722-9.813-35.98-35.98-35.98-35.98
				L312.149,199.795L325.778,213.423z"/>
		</g>
		
			<rect x="371.935" y="0.443" transform="matrix(0.7071 0.7071 -0.7071 0.7071 206.1303 -226.3556)" style="fill:#414E57;" width="8.731" height="270.401"/>
		<polygon style="fill:#E3E2E2;" points="210.402,353.976 204.541,359.837 191.855,371.41 166.185,345.741 140.663,320.145 
			152.089,307.385 157.95,301.524 		"/>
		<polygon style="fill:#E3E2E2;" points="180.207,381.872 167.075,393.89 118.332,345.147 118.184,344.999 130.054,331.794 
			130.129,331.867 155.131,356.795 		"/>
	</g>
	<path style="opacity:0.2;fill:#FFFFFF;" d="M472.96,38.966l-1.039,1.113l-0.519,0.446l-3.19,3.264L312.116,199.81l-9.793,9.867
		l-11.277,11.203l-10.313,10.387l-96.521,96.521l-18.028,17.953l-11.054,11.054l-12.538,12.613l-41.175,41.1L80.496,431.43
		L6.677,505.323l-6.009,5.936L0,510.516l4.822-7.048l59.723-87.989l-1.483-1.484c-0.519-0.592-1.039-1.186-1.41-1.928
		c-0.074-0.223-0.223-0.446-0.297-0.667c-0.371-0.966-0.593-1.929-0.593-2.969c0-0.964,0.222-2.002,0.593-2.893
		c0.371-0.965,0.965-1.855,1.707-2.597l55.271-57.793v-0.074l-0.148-0.074l11.87-13.205l0.074,0.073l10.535-11.722l11.426-12.76
		l118.407-118.407c0.816-0.743,1.707-1.336,2.597-1.707c0.965-0.37,2.003-0.593,2.967-0.593c1.039,0,2.003,0.223,2.968,0.593
		c0.965,0.371,1.855,0.964,2.596,1.707l2.374,2.374c1.187-2.893,2.968-5.639,5.342-7.938l11.425-11.426v-0.074
		c0.074-0.371,0.074-0.743,0.148-1.113c0.148-1.706,0.371-3.561,0.519-5.416c0-0.371,0.074-0.667,0.074-1.039
		c0.149-1.335,0.297-2.671,0.371-4.081c0.074-0.223,0.074-0.445,0.074-0.742c0.148-1.113,0.223-2.299,0.297-3.487
		c0.371-4.303,0.742-8.681,1.038-13.058c0.148-1.484,0.297-2.893,0.371-4.303c0.074-1.262,0.148-2.449,0.297-3.71
		c0.074-1.559,0.223-3.042,0.297-4.526c0.148-1.409,0.223-2.818,0.297-4.08c0.222-2.597,0.371-4.897,0.519-6.974
		c0.222-2.818,0.371-5.193,0.519-6.825c1.113-13.058,19.66-34.869,33.831-49.04c14.17-14.17,46.443-46.516,56.829-56.829
		c10.313-10.387,26.115-7.642,35.982,1.112c3.709,3.265,9.645,9.126,15.654,15.209c1.038,0.965,2.077,2.003,3.042,3.042
		c1.335,1.336,2.596,2.596,3.784,3.858h0.074v0.074c1.484,0.073,2.967,0.296,4.451,0.593c0.742,0.223,1.484,0.371,2.152,0.594
		c0.371,0.149,0.742,0.296,1.038,0.37c0.074,0,0.074,0.074,0.074,0.074c0.148,0,0.297,0.074,0.371,0.074
		c0.297,0.149,0.519,0.222,0.742,0.37c0.667,0.297,1.335,0.594,2.003,0.965c2.003,1.112,3.932,2.522,5.638,4.228L472.96,38.966z"/>
</g>
</svg>
