<?xml version="1.0" encoding="iso-8859-1"?>
<!-- Generator: Adobe Illustrator 18.0.0, SVG Export Plug-In . SVG Version: 6.00 Build 0)  -->
<!DOCTYPE svg PUBLIC "-//W3C//DTD SVG 1.1//EN" "http://www.w3.org/Graphics/SVG/1.1/DTD/svg11.dtd">
<svg version="1.1" id="_x36_" xmlns="http://www.w3.org/2000/svg" xmlns:xlink="http://www.w3.org/1999/xlink" x="0px" y="0px"
	 viewBox="0 0 512 512" style="enable-background:new 0 0 512 512;" xml:space="preserve">
<g>
	<g>
		<path style="fill:#C82F2C;" d="M457.948,460.606v14.646c0,20.325-16.424,36.748-36.681,36.748H90.732
			c-3.9,0-7.733-0.615-11.223-1.779c-11.223-3.558-20.119-12.455-23.678-23.678c-1.163-3.559-1.779-7.39-1.779-11.291v-14.646
			c0-14.097,7.939-26.346,19.572-32.438c5.133-2.805,10.95-4.31,17.109-4.31h330.536c6.159,0,11.976,1.505,17.109,4.31
			C450.01,434.26,457.948,446.509,457.948,460.606z"/>
		<g>
			<path style="fill:#7B482C;" d="M140.552,164.767c0,0.822-0.068,1.574-0.274,2.327c-1.232,7.254-5.612,13.892-12.524,17.724
				l-33.054,21.214l-13.413,8.623L61.1,227.658c-13.755,7.596-31.069,2.669-38.734-11.018c-7.664-13.755-2.669-31.069,11.018-38.734
				l58.922-31.205l0.411-0.205l10.607-5.612c12.113-6.706,27.442-2.395,34.217,9.786
				C140.005,155.118,140.963,160.045,140.552,164.767z"/>
			<path style="fill:#7B482C;" d="M384.235,184.85c-12.136-6.755-16.498-22.066-9.746-34.201c6.754-12.134,22.066-16.498,34.2-9.744
				l69.913,37.01c13.73,7.643,18.668,24.97,11.027,38.702c-7.643,13.732-24.971,18.668-38.7,11.027L384.235,184.85z"/>
		</g>
		<rect x="73.624" y="392.036" style="fill:#575451;" width="364.753" height="44.072"/>
		<rect x="73.624" y="336.947" style="fill:#E3BE6C;" width="364.753" height="74.662"/>
		<rect x="73.61" y="431.211" style="fill:#E3BE6C;" width="364.778" height="31.826"/>
		<path style="fill:#C82F2C;" d="M493.466,317.375c0,35.175-23.131,52.01-55.089,57.074c-7.323,1.163-15.124,1.711-23.268,1.711
			H106.267c-11.086,0-22.173-1.027-32.643-3.217c-30.453-6.569-55.089-23.405-55.089-55.568c0-43.251,29.358-73.429,58.716-78.356
			l4.037-24.363l11.223-66.86l0.206-1.3l4.174-24.979h318.217l2.943,17.45l1.232,7.528l11.429,68.16l4.037,24.363
			C464.107,243.945,493.466,274.124,493.466,317.375z"/>
		<g>
			<g>
				<circle style="fill:#FFFFFF;" cx="150.971" cy="253.234" r="42.105"/>
				<path style="fill:#7B482C;" d="M191.96,230.315c13.607,2.782,26.891-5.992,29.673-19.597
					c2.782-13.605-5.99-26.889-19.595-29.673l-77.153-17.469c-15.396-3.148-30.429,6.78-33.577,22.176
					c-3.148,15.396,6.778,30.429,22.176,33.577L191.96,230.315z"/>
			</g>
			<g>
				<circle style="fill:#FFFFFF;" cx="361.029" cy="253.234" r="42.105"/>
				<circle style="fill:#231815;" cx="150.971" cy="253.234" r="16.841"/>
				<circle style="fill:#231815;" cx="361.028" cy="253.234" r="16.842"/>
				<path style="fill:#7B482C;" d="M320.04,230.315c-13.607,2.782-26.891-5.992-29.676-19.597
					c-2.782-13.605,5.992-26.889,19.597-29.673l77.151-17.469c15.398-3.148,30.431,6.78,33.579,22.176
					c3.15,15.396-6.778,30.429-22.176,33.577L320.04,230.315z"/>
			</g>
		</g>
		<g>
			<path style="fill:#7B482C;" d="M324.098,282.303c-3.938,0-7.778,0.424-11.479,1.225c-4.517-27.191-28.147-47.921-56.618-47.921
				c-28.474,0-52.104,20.73-56.62,47.921c-3.701-0.801-7.538-1.225-11.479-1.225c-29.819,0-53.993,24.172-53.993,53.993
				c0,29.819,24.174,53.991,53.993,53.991c25.694,0,42.578-10.695,68.099-10.695c25.519,0,42.405,10.695,68.097,10.695
				c29.821,0,53.992-24.172,53.992-53.991C378.09,306.475,353.919,282.303,324.098,282.303z"/>
			<circle style="fill:#B92422;" cx="200.11" cy="346.764" r="19.842"/>
			<circle style="fill:#B92422;" cx="306.883" cy="346.764" r="19.842"/>
		</g>
		<g>
			<path style="fill:#FEEFDD;" d="M474.099,103.656c0,12.729-37.502,13.961-50.709,24.704c-2.669,2.19-4.243,6.022-5.338,10.607
				c-0.548,1.916-0.958,3.97-1.3,6.16c-1.574,8.28-2.737,17.519-6.706,23.678c-1.779,2.737-4.106,4.859-7.185,6.022
				c-7.323,2.806-18.614-2.806-30.043-8.007c-0.41-0.137-0.821-0.343-1.232-0.547c-9.375-4.106-18.683-7.802-26.005-6.228
				c-6.912,1.437-12.66,9.171-18.477,17.108c-6.707,9.102-13.618,18.614-22.583,19.504c-3.696,0.342-7.528-1.027-11.429-3.285
				c-12.523-7.391-26.142-24.225-38.733-24.225c-11.839,0-24.499,14.85-36.407,22.72c-4.722,3.148-9.375,5.201-13.755,4.79
				c-9.238-0.89-16.219-10.949-23.199-20.325c-5.612-7.665-11.155-14.85-17.861-16.287c-6.433-1.368-14.371,1.3-22.583,4.722
				c-1.163,0.548-2.327,1.095-3.559,1.574c-11.839,5.338-23.61,11.361-31.137,8.487c-2.395-0.958-4.311-2.395-5.885-4.311
				c-4.585-5.475-6.022-14.372-7.46-22.721c-0.068-0.342-0.137-0.753-0.205-1.094c-1.369-7.802-2.874-14.988-6.98-18.341
				c-13.208-10.744-50.709-11.976-50.709-24.704c0-15.535,37.502-20.119,47.151-31.412c9.239-10.811-0.205-41.744,16.151-48.93
				c13.755-6.091,42.292,16.834,60.016,13.139c15.466-3.216,26.279-34.969,44.003-36.406c16.151-1.369,34.902,27.784,52.421,27.784
				c17.245,0,36.201-28.947,52.146-27.305c17.451,1.779,27.1,33.738,42.361,37.297c17.177,4.037,45.645-18.067,59.401-12.386
				c0.137,0.069,0.206,0.069,0.342,0.136c3.49,1.575,5.817,4.243,7.391,7.596c0.069,0.069,0.069,0.069,0.069,0.137
				c5.748,12.181,1.984,33.054,9.444,40.855C436.46,85.589,474.099,89.216,474.099,103.656z"/>
		</g>
	</g>
	<path style="opacity:0.06;fill:#040000;" d="M438.376,392.036v-17.587c31.958-5.064,55.089-21.899,55.089-57.074
		c0-43.251-29.358-73.429-58.716-78.356l-4.034-24.344l20.214,12.97c13.729,7.641,31.057,2.704,38.7-11.027
		c7.641-13.731,2.703-31.058-11.027-38.702l-59.315-31.4l-0.003-0.02l-1.232-7.528c1.095-4.584,2.669-8.417,5.338-10.607
		c13.208-10.744,50.709-11.976,50.709-24.704c0-14.439-37.639-18.067-48.588-29.495c-7.46-7.801-3.696-28.673-9.444-40.855
		c0-0.069,0-0.069-0.069-0.137c-1.574-3.353-3.901-6.021-7.391-7.596c-0.137-0.068-0.205-0.068-0.342-0.136
		c-13.755-5.681-42.224,16.423-59.401,12.386c-15.261-3.559-24.91-35.518-42.361-37.297C291.062-1.065,272.801,25.955,256,27.667
		V512h165.268c20.256,0,36.681-16.423,36.681-36.748v-14.646c0-14.097-7.939-26.346-19.572-32.438v-16.56V392.036z"/>
</g>
</svg>
